<?xml version="1.0" encoding="UTF-8" standalone="no"?>
<!-- Created with Inkscape (http://www.inkscape.org/) -->

<svg
   version="1.1"
   id="svg2"
   xml:space="preserve"
   width="381.13333"
   height="121.84"
   viewBox="0 0 381.13333 121.84"
   sodipodi:docname="HyFive-Logo schwarz-blau.eps"
   xmlns:inkscape="http://www.inkscape.org/namespaces/inkscape"
   xmlns:sodipodi="http://sodipodi.sourceforge.net/DTD/sodipodi-0.dtd"
   xmlns="http://www.w3.org/2000/svg"
   xmlns:svg="http://www.w3.org/2000/svg"><defs
     id="defs6" /><sodipodi:namedview
     id="namedview4"
     pagecolor="#ffffff"
     bordercolor="#666666"
     borderopacity="1.0"
     inkscape:pageshadow="2"
     inkscape:pageopacity="0.0"
     inkscape:pagecheckerboard="0" /><g
     id="g8"
     inkscape:groupmode="layer"
     inkscape:label="ink_ext_XXXXXX"
     transform="matrix(1.3333333,0,0,-1.3333333,0,121.84)"><g
       id="g10"
       transform="scale(0.1)"><path
         d="m 790.719,514.625 c 0,0 -0.426,8.484 -0.426,23.645 0.016,7.429 -0.996,59.543 0.699,112.96 0.274,8.465 3.156,16.934 3.434,25.278 0.094,2.969 -2.438,5.933 -2.336,8.879 0.879,27.699 1.676,39.996 2.183,56.578 0.352,11.023 3.055,18.14 2.813,19.453 -0.477,2.297 -0.606,22.531 0.07,33.852 1.621,27.093 1.059,47.109 5.852,52.121 6.129,6.441 15.355,25.754 34.34,24.683 9.445,-0.547 33.535,-9.148 36.988,-25.035 1.031,-4.68 10.383,-32.699 10.191,-62.094 -0.05,-5.89 -2.675,-11.843 -2.625,-17.656 0.293,-26.922 3.047,-51.269 3.032,-55.719 0,-3.609 -2.637,-18.656 -2.637,-37.129 0,-4.972 2.676,-10.203 2.766,-15.511 0.55,-30.805 -0.192,-64.688 -0.192,-71.168 -0.016,-11.762 1.52,-35.09 1.52,-35.09 0,0 6.265,66.211 6.281,73.992 0,2.613 -1.227,17.031 -0.738,35.371 0.132,5.309 2.847,10.965 2.773,16.754 -0.059,5.703 -2.848,11.555 -3.047,17.352 -0.976,28.261 -0.465,55.304 -0.465,59.695 0,4.238 2.321,27.957 2.102,53.633 -0.02,4.597 -2.477,7.097 -2.707,13.89 -0.86,26.567 2.555,51.934 3.293,57 2.754,18.496 27.918,30.926 45.047,30.926 17.117,-0.019 31.351,-17.988 34.472,-25.773 1.602,-4.012 5.215,-31.992 5.797,-59.09 0.117,-5.582 -2.418,-11.106 -2.34,-16.387 0.313,-18.824 3.063,-34.433 3.063,-37.129 0,-2.906 0.332,-40.289 -0.02,-83.652 -0.015,-3.359 -2.675,-6.754 -2.675,-10.172 0,-3.605 2.64,-7.234 2.66,-10.879 0.226,-56.949 -0.102,-116.262 -0.102,-118.344 0,-3.961 3.102,-1.074 3.121,16.055 0,11.82 1.485,56.27 2.969,92.352 0.27,6.812 3.094,13.304 3.141,19.238 0.054,8.176 -2.637,15.277 -2.911,20.586 -0.777,14.941 -0.042,45.859 -0.21,76.301 -0.04,6.75 1.339,14.086 1.324,20.519 -0.074,22.024 0.039,49.031 0.039,57.379 0.015,21.793 14.272,29.25 28.332,30.316 17.96,1.387 38.81,-11.761 48.9,-30.472 2.74,-5.094 3.01,-37.926 2.79,-59.91 -0.07,-7.516 -3.06,-11.082 -2.65,-13.266 0.19,-1.098 2.54,-11.223 2.63,-17.832 0.26,-17.348 0.92,-49.746 0.63,-83.68 -0.04,-3.308 -2.69,-6.648 -2.67,-9.988 0.02,-2.453 2.63,-4.934 2.65,-7.394 0.31,-49.555 -0.17,-97.465 -0.94,-101.993 -1.56,-9.324 4.82,-32.734 4.82,-26.515 0,5.425 2.3,92.726 2.91,124.16 0.08,4.59 2.77,7.957 2.77,9.754 l -2.89,10.726 -0.85,38.688 1.49,12.59 -1.91,13.922 c 0,0 -0.92,48.019 3.77,60.46 4.66,12.45 24.13,11.731 30.53,11.122 15.74,-1.485 30.8,-25.848 32.66,-31.157 4.6,-13.031 5.77,-43.132 5.48,-61.683 -0.1,-7.051 -1.95,-10.418 -2.38,-12.571 -0.21,-0.988 1.19,-6.511 1.11,-11.898 -0.13,-8.758 0.73,-21.109 0.22,-35.031 -0.1,-2.832 -2.78,-5.746 -2.76,-8.688 0.05,-3.863 2.74,-7.804 2.81,-11.804 0.86,-40.071 1.25,-84.672 1.25,-95.145 -0.02,-8.25 10.32,-60.812 13.1,-82.211 2.57,-20.133 -0.41,-108.648 -1.98,-131.996 -1.57,-23.344 -9.38,-73.148 -17.18,-93.355 -7.79,-20.235 -21.29,-75.614 -21.31,-94.293 0,0 -4.62,-73.4106 9.13,-85.645 4.66,-4.1328 -87.2,-53.45703 -163.833,-55 -17.114,-0.34375 -179.098,39.9023 -175.821,56.1328 3.106,15.5664 18.145,78.1722 2.09,96.0232 -42.488,47.196 -76.164,171.391 -93.277,191.645 -14.086,16.66 -56.906,81.625 -71.012,104.16 -3.039,4.852 -3.097,7.879 -3.097,7.879 0,0 -34.75,27.723 -39.415,37.07 -4.679,9.34 0.899,31.68 17.133,31.11 13.907,-0.485 38.024,-0.719 53.024,-9.942 19.863,-12.258 40.343,-30.594 52.773,-57.047 12.449,-26.457 35.781,-46.496 45.102,-49.613 9.343,-3.121 16.035,2.129 20.718,13.031 4.688,10.906 14.266,44.031 12.973,58.336 -0.484,5.363 3.242,31.781 3.242,31.781 l 2.399,1.559"
         style="fill:#4791d5;fill-opacity:1;fill-rule:nonzero;stroke:none"
         id="path12" /><path
         d="m 790.719,514.625 c 0,0 -0.426,8.484 -0.426,23.645 0.016,7.429 -0.996,59.543 0.699,112.96 0.274,8.465 3.156,16.934 3.434,25.278 0.094,2.969 -2.438,5.933 -2.336,8.879 0.879,27.699 1.676,39.996 2.183,56.578 0.352,11.023 3.055,18.14 2.813,19.453 -0.477,2.297 -0.606,22.531 0.07,33.852 1.621,27.093 1.059,47.109 5.852,52.121 6.129,6.441 15.355,25.754 34.34,24.683 9.445,-0.547 33.535,-9.148 36.988,-25.035 1.031,-4.68 10.383,-32.699 10.191,-62.094 -0.05,-5.89 -2.675,-11.843 -2.625,-17.656 0.293,-26.922 3.047,-51.269 3.032,-55.719 0,-3.609 -2.637,-18.656 -2.637,-37.129 0,-4.972 2.676,-10.203 2.766,-15.511 0.55,-30.805 -0.192,-64.688 -0.192,-71.168 -0.016,-11.762 1.52,-35.09 1.52,-35.09 0,0 6.265,66.211 6.281,73.992 0,2.613 -1.227,17.031 -0.738,35.371 0.132,5.309 2.847,10.965 2.773,16.754 -0.059,5.703 -2.848,11.555 -3.047,17.352 -0.976,28.261 -0.465,55.304 -0.465,59.695 0,4.238 2.321,27.957 2.102,53.633 -0.02,4.597 -2.477,7.097 -2.707,13.89 -0.86,26.567 2.555,51.934 3.293,57 2.754,18.496 27.918,30.926 45.047,30.926 17.117,-0.019 31.351,-17.988 34.472,-25.773 1.602,-4.012 5.215,-31.992 5.797,-59.09 0.117,-5.582 -2.418,-11.106 -2.34,-16.387 0.313,-18.824 3.063,-34.433 3.063,-37.129 0,-2.906 0.332,-40.289 -0.02,-83.652 -0.015,-3.359 -2.675,-6.754 -2.675,-10.172 0,-3.605 2.64,-7.234 2.66,-10.879 0.226,-56.949 -0.102,-116.262 -0.102,-118.344 0,-3.961 3.102,-1.074 3.121,16.055 0,11.82 1.485,56.27 2.969,92.352 0.27,6.812 3.094,13.304 3.141,19.238 0.054,8.176 -2.637,15.277 -2.911,20.586 -0.777,14.941 -0.042,45.859 -0.21,76.301 -0.04,6.75 1.339,14.086 1.324,20.519 -0.074,22.024 0.039,49.031 0.039,57.379 0.015,21.793 14.272,29.25 28.332,30.316 17.96,1.387 38.81,-11.761 48.9,-30.472 2.74,-5.094 3.01,-37.926 2.79,-59.91 -0.07,-7.516 -3.06,-11.082 -2.65,-13.266 0.19,-1.098 2.54,-11.223 2.63,-17.832 0.26,-17.348 0.92,-49.746 0.63,-83.68 -0.04,-3.308 -2.69,-6.648 -2.67,-9.988 0.02,-2.453 2.63,-4.934 2.65,-7.394 0.31,-49.555 -0.17,-97.465 -0.94,-101.993 -1.56,-9.324 4.82,-32.734 4.82,-26.515 0,5.425 2.3,92.726 2.91,124.16 0.08,4.59 2.77,7.957 2.77,9.754 l -2.89,10.726 -0.85,38.688 1.49,12.59 -1.91,13.922 c 0,0 -0.92,48.019 3.77,60.46 4.66,12.45 24.13,11.731 30.53,11.122 15.74,-1.485 30.8,-25.848 32.66,-31.157 4.6,-13.031 5.77,-43.132 5.48,-61.683 -0.1,-7.051 -1.95,-10.418 -2.38,-12.571 -0.21,-0.988 1.19,-6.511 1.11,-11.898 -0.13,-8.758 0.73,-21.109 0.22,-35.031 -0.1,-2.832 -2.78,-5.746 -2.76,-8.688 0.05,-3.863 2.74,-7.804 2.81,-11.804 0.86,-40.071 1.25,-84.672 1.25,-95.145 -0.02,-8.25 10.32,-60.812 13.1,-82.211 2.57,-20.133 -0.41,-108.648 -1.98,-131.996 -1.57,-23.344 -9.38,-73.148 -17.18,-93.355 -7.79,-20.235 -21.29,-75.614 -21.31,-94.293 0,0 -4.62,-73.4106 9.13,-85.645 4.66,-4.1328 -87.2,-53.45703 -163.833,-55 -17.114,-0.34375 -179.098,39.9023 -175.821,56.1328 3.106,15.5664 18.145,78.1722 2.09,96.0232 -42.488,47.196 -76.164,171.391 -93.277,191.645 -14.086,16.66 -56.906,81.625 -71.012,104.16 -3.039,4.852 -3.097,7.879 -3.097,7.879 0,0 -34.75,27.723 -39.415,37.07 -4.679,9.34 0.899,31.68 17.133,31.11 13.907,-0.485 38.024,-0.719 53.024,-9.942 19.863,-12.258 40.343,-30.594 52.773,-57.047 12.449,-26.457 35.781,-46.496 45.102,-49.613 9.343,-3.121 16.035,2.129 20.718,13.031 4.688,10.906 14.266,44.031 12.973,58.336 -0.484,5.363 3.242,31.781 3.242,31.781 z"
         style="fill:none;stroke:#ffffff;stroke-width:5;stroke-linecap:butt;stroke-linejoin:miter;stroke-miterlimit:4;stroke-dasharray:none;stroke-opacity:1"
         id="path14" /><path
         d="M 420.727,68.8398 V 296.117 H 157.5 v 81.262 h 263.227 v 216.469 h 91.328 V 68.8398 Z M 0,68.8398 V 593.848 H 91.332 V 68.8398 H 0"
         style="fill:#231f20;fill-opacity:1;fill-rule:nonzero;stroke:none"
         id="path16" /><path
         d="m 1426.15,287.48 v 79.829 h 264.66 V 287.48 Z M 1268.65,71.0078 V 593.848 h 443.74 V 502.523 H 1359.27 V 71.0078 h -90.62"
         style="fill:#231f20;fill-opacity:1;fill-rule:nonzero;stroke:none"
         id="path18" /><path
         d="M 1780.7,71.0078 V 365.754 h 91.33 V 71.0078 h -91.33"
         style="fill:#231f20;fill-opacity:1;fill-rule:nonzero;stroke:none"
         id="path20" /><path
         d="m 1932.44,593.848 h 111.48 l 237.33,-402.723 236.63,402.723 h 105 L 2321.53,93.3008 c -5.28,-9.1289 -11.51,-16.3086 -18.7,-21.582 -7.2,-5.2657 -15.59,-7.918 -25.17,-7.918 -10.09,0 -18.71,2.6523 -25.89,7.918 -7.19,5.2734 -13.42,12.4531 -18.71,21.582 L 1932.44,593.848"
         style="fill:#231f20;fill-opacity:1;fill-rule:nonzero;stroke:none"
         id="path22" /><path
         d="m 2680.26,194.691 v 61.981 h 166.67 V 194.691 Z M 2589.68,76.8359 V 376.168 h 268.43 v -72.266 h -216.32 v -154.8 h 216.7 V 76.8359 h -268.81"
         style="fill:#231f20;fill-opacity:1;fill-rule:nonzero;stroke:none"
         id="path24" /><path
         d="m 1872.12,541.797 c 0,-24.871 -20.17,-45.043 -45.04,-45.043 -24.88,0 -45.05,20.172 -45.05,45.043 0,24.879 20.17,45.051 45.05,45.051 24.87,0 45.04,-20.172 45.04,-45.051"
         style="fill:#4791d5;fill-opacity:1;fill-rule:nonzero;stroke:none"
         id="path26" /></g></g></svg>
