<svg xmlns="http://www.w3.org/2000/svg" viewBox="0 0 1440 320" width="100%" height="100%">
  <path transform="translate(-300 90)" fill="#375c96" fill-opacity="0.1" d="M0,256L48,256C96,256,192,256,288,229.3C384,203,480,149,576,112C672,75,768,53,864,69.3C960,85,1056,139,1152,165.3C1248,192,1344,192,1392,192L1440,192L1440,320L1392,320C1344,320,1248,320,1152,320C1056,320,960,320,864,320C768,320,672,320,576,320C480,320,384,320,288,320C192,320,96,320,48,320L0,320Z"></path>
  <path transform="translate(20 -30)" fill="#375c96" fill-opacity="0.1" d="M0,256L34.3,240C68.6,224,137,192,206,181.3C274.3,171,343,181,411,192C480,203,549,213,617,229.3C685.7,245,754,267,823,250.7C891.4,235,960,181,1029,160C1097.1,139,1166,149,1234,154.7C1302.9,160,1371,160,1406,160L1440,160L1440,320L1405.7,320C1371.4,320,1303,320,1234,320C1165.7,320,1097,320,1029,320C960,320,891,320,823,320C754.3,320,686,320,617,320C548.6,320,480,320,411,320C342.9,320,274,320,206,320C137.1,320,69,320,34,320L0,320Z"></path>
  <path transform="translate(0 0)" fill="#375c96" fill-opacity="0.2" d="M0,256L34.3,240C68.6,224,137,192,206,181.3C274.3,171,343,181,411,192C480,203,549,213,617,229.3C685.7,245,754,267,823,250.7C891.4,235,960,181,1029,160C1097.1,139,1166,149,1234,154.7C1302.9,160,1371,160,1406,160L1440,160L1440,320L1405.7,320C1371.4,320,1303,320,1234,320C1165.7,320,1097,320,1029,320C960,320,891,320,823,320C754.3,320,686,320,617,320C548.6,320,480,320,411,320C342.9,320,274,320,206,320C137.1,320,69,320,34,320L0,320Z"></path>
  <path transform="translate(0 -20) scale(-1 1)" fill="#375c96" fill-opacity="0.2" d="M0,256L34.3,240C68.6,224,137,192,206,181.3C274.3,171,343,181,411,192C480,203,549,213,617,229.3C685.7,245,754,267,823,250.7C891.4,235,960,181,1029,160C1097.1,139,1166,149,1234,154.7C1302.9,160,1371,160,1406,160L1440,160L1440,320L1405.7,320C1371.4,320,1303,320,1234,320C1165.7,320,1097,320,1029,320C960,320,891,320,823,320C754.3,320,686,320,617,320C548.6,320,480,320,411,320C342.9,320,274,320,206,320C137.1,320,69,320,34,320L0,320Z"></path>
  <path transform="translate(0 60)" fill="#375c96" fill-opacity="0.2" d="M0,256L48,256C96,256,192,256,288,229.3C384,203,480,149,576,112C672,75,768,53,864,69.3C960,85,1056,139,1152,165.3C1248,192,1344,192,1392,192L1440,192L1440,320L1392,320C1344,320,1248,320,1152,320C1056,320,960,320,864,320C768,320,672,320,576,320C480,320,384,320,288,320C192,320,96,320,48,320L0,320Z"></path>
  <path transform="translate(0 0)" fill="#375c96" fill-opacity="0.2" d="M0,160L48,186.7C96,213,192,267,288,288C384,309,480,299,576,261.3C672,224,768,160,864,160C960,160,1056,224,1152,234.7C1248,245,1344,203,1392,181.3L1440,160L1440,320L1392,320C1344,320,1248,320,1152,320C1056,320,960,320,864,320C768,320,672,320,576,320C480,320,384,320,288,320C192,320,96,320,48,320L0,320Z"></path>
  <path transform="translate(20 120)" fill="#375c96" fill-opacity="0.3" d="M0,160L60,144C120,128,240,96,360,122.7C480,149,600,235,720,256C840,277,960,235,1080,229.3C1200,224,1320,256,1380,272L1440,288L1440,320L1380,320C1320,320,1200,320,1080,320C960,320,840,320,720,320C600,320,480,320,360,320C240,320,120,320,60,320L0,320Z"></path>
  <path transform="translate(0 180)" fill="#375c96" fill-opacity="0.4" d="M0,256L48,256C96,256,192,256,288,229.3C384,203,480,149,576,112C672,75,768,53,864,69.3C960,85,1056,139,1152,165.3C1248,192,1344,192,1392,192L1440,192L1440,320L1392,320C1344,320,1248,320,1152,320C1056,320,960,320,864,320C768,320,672,320,576,320C480,320,384,320,288,320C192,320,96,320,48,320L0,320Z"></path>
  <path transform="translate(200 160)" fill="#375c96" fill-opacity="0.5" d="M0,256L48,256C96,256,192,256,288,229.3C384,203,480,149,576,112C672,75,768,53,864,69.3C960,85,1056,139,1152,165.3C1248,192,1344,192,1392,192L1440,192L1440,320L1392,320C1344,320,1248,320,1152,320C1056,320,960,320,864,320C768,320,672,320,576,320C480,320,384,320,288,320C192,320,96,320,48,320L0,320Z"></path>
  <path transform="translate(200 80)" fill="#375c96" fill-opacity="0.6" d="M0,224L60,208C120,192,240,160,360,170.7C480,181,600,235,720,229.3C840,224,960,160,1080,165.3C1200,171,1320,245,1380,282.7L1440,320L1440,320L1380,320C1320,320,1200,320,1080,320C960,320,840,320,720,320C600,320,480,320,360,320C240,320,120,320,60,320L0,320Z"></path>
  <path transform="translate(20 150)" fill="#375c96" fill-opacity="0.7" d="M0,160L60,144C120,128,240,96,360,122.7C480,149,600,235,720,256C840,277,960,235,1080,229.3C1200,224,1320,256,1380,272L1440,288L1440,320L1380,320C1320,320,1200,320,1080,320C960,320,840,320,720,320C600,320,480,320,360,320C240,320,120,320,60,320L0,320Z"></path>
</svg>
